<svg version="1.1" viewBox="0.0 0.0 576.0 576.0" fill="none" stroke="none" stroke-linecap="square" stroke-miterlimit="10" xmlns:xlink="http://www.w3.org/1999/xlink" xmlns="http://www.w3.org/2000/svg"><clipPath id="g974edc753e_0_0.0"><path d="m0 0l576.0 0l0 576.0l-576.0 0l0 -576.0z" clip-rule="nonzero"/></clipPath><g clip-path="url(#g974edc753e_0_0.0)"><path fill="#000000" fill-opacity="0.0" d="m0 0l576.0 0l0 576.0l-576.0 0z" fill-rule="evenodd"/><path fill="#000000" fill-opacity="0.0" d="m0 288.0l0 0c0 -159.05801 128.94199 -288.0 288.0 -288.0l0 0c76.382355 0 149.63626 30.34277 203.64676 84.35325c54.010468 54.010475 84.35324 127.2644 84.35324 203.64676l0 0c0 159.05801 -128.94199 288.0 -288.0 288.0l0 0c-159.05801 0 -288.0 -128.94199 -288.0 -288.0z" fill-rule="evenodd"/><path fill="#efefef" d="m241.82812 203.775l0 112.375q0 28.015625 -17.515625 44.3125q-17.515625 16.28125 -47.875 16.28125q-29.875 0 -47.453125 -15.8125q-17.578117 -15.828125 -17.937492 -43.484375l0 -113.671875l35.156242 0l0 112.609375q0 16.765625 8.03125 24.4375q8.03125 7.671875 22.203125 7.671875q29.65625 0 30.125 -31.171875l0 -113.546875l35.265625 0zm28.828125 170.625l0 -170.625l59.765625 0q31.0625 0 47.109375 11.890625q16.0625 11.890625 16.0625 34.859375q0 12.546875 -6.453125 22.09375q-6.4375 9.546875 -17.921875 14.0q13.125 3.28125 20.671875 13.25q7.5625 9.953125 7.5625 24.375q0 24.609375 -15.703125 37.265625q-15.703125 12.65625 -44.765625 12.890625l-66.328125 0zm35.15625 -74.296875l0 46.046875l30.125 0q12.421875 0 19.390625 -5.90625q6.96875 -5.921875 6.96875 -16.359375q0 -23.4375 -24.25 -23.78125l-32.234375 0zm0 -24.84375l26.015625 0q26.609375 -0.46875 26.609375 -21.21875q0 -11.59375 -6.75 -16.6875q-6.734375 -5.109375 -21.265625 -5.109375l-24.609375 0l0 43.015625zm155.39844 99.140625l-35.15625 0l0 -170.625l35.15625 0l0 170.625z" fill-rule="nonzero"/><path fill="#000000" fill-opacity="0.0" d="m25.811024 288.0l0 0c0 -144.80298 117.386 -262.18896 262.18896 -262.18896l0 0c69.536835 0 136.22565 27.623402 185.3956 76.79338c49.169952 49.169968 76.793365 115.858765 76.793365 185.3956l0 0c0 144.80298 -117.38599 262.18896 -262.18896 262.18896l0 0c-144.80298 0 -262.18896 -117.38599 -262.18896 -262.18896z" fill-rule="evenodd"/><path stroke="#efefef" stroke-width="8.0" stroke-linejoin="round" stroke-linecap="butt" d="m25.811024 288.0l0 0c0 -144.80298 117.386 -262.18896 262.18896 -262.18896l0 0c69.536835 0 136.22565 27.623402 185.3956 76.79338c49.169952 49.169968 76.793365 115.858765 76.793365 185.3956l0 0c0 144.80298 -117.38599 262.18896 -262.18896 262.18896l0 0c-144.80298 0 -262.18896 -117.38599 -262.18896 -262.18896z" fill-rule="evenodd"/><path fill="#000000" fill-opacity="0.0" d="m42.94488 288.0l0 0c0 -135.34021 109.714905 -245.05511 245.05511 -245.05511l0 0c64.992645 0 127.323395 25.818233 173.28012 71.77498c45.956757 45.956757 71.774994 108.287476 71.774994 173.28014l0 0c0 135.34021 -109.714905 245.05511 -245.05511 245.05511l0 0c-135.34021 0 -245.05511 -109.714905 -245.05511 -245.05511z" fill-rule="evenodd"/><path stroke="#efefef" stroke-width="8.0" stroke-linejoin="round" stroke-linecap="butt" d="m42.94488 288.0l0 0c0 -135.34021 109.714905 -245.05511 245.05511 -245.05511l0 0c64.992645 0 127.323395 25.818233 173.28012 71.77498c45.956757 45.956757 71.774994 108.287476 71.774994 173.28014l0 0c0 135.34021 -109.714905 245.05511 -245.05511 245.05511l0 0c-135.34021 0 -245.05511 -109.714905 -245.05511 -245.05511z" fill-rule="evenodd"/><path fill="#000000" fill-opacity="0.0" d="m60.440945 288.0l0 0c0 -125.6774 101.88165 -227.55905 227.55905 -227.55905l0 0c60.352417 0 118.23294 23.974903 160.90854 66.6505c42.6756 42.6756 66.65054 100.55614 66.65054 160.90855l0 0c0 125.6774 -101.88168 227.55908 -227.55908 227.55908l0 0c-125.6774 0 -227.55905 -101.88168 -227.55905 -227.55908z" fill-rule="evenodd"/><path stroke="#efefef" stroke-width="8.0" stroke-linejoin="round" stroke-linecap="butt" d="m60.440945 288.0l0 0c0 -125.6774 101.88165 -227.55905 227.55905 -227.55905l0 0c60.352417 0 118.23294 23.974903 160.90854 66.6505c42.6756 42.6756 66.65054 100.55614 66.65054 160.90855l0 0c0 125.6774 -101.88168 227.55908 -227.55908 227.55908l0 0c-125.6774 0 -227.55905 -101.88168 -227.55905 -227.55908z" fill-rule="evenodd"/></g></svg>