<svg version="1.1" viewBox="0.0 0.0 1728.0 576.0" fill="none" stroke="none" stroke-linecap="square" stroke-miterlimit="10" xmlns:xlink="http://www.w3.org/1999/xlink" xmlns="http://www.w3.org/2000/svg"><clipPath id="g975030600f_0_10.0"><path d="m0 0l1728.0 0l0 576.0l-1728.0 0l0 -576.0z" clip-rule="nonzero"/></clipPath><g clip-path="url(#g975030600f_0_10.0)"><path fill="#000000" fill-opacity="0.0" d="m0 0l1728.0 0l0 576.0l-1728.0 0z" fill-rule="evenodd"/><path fill="#000000" fill-opacity="0.0" d="m64.0 288.0l0 0c0 -159.05801 128.94199 -288.0 288.0 -288.0l0 0c76.382355 0 149.63626 30.34277 203.64673 84.35325c54.010498 54.010475 84.35327 127.2644 84.35327 203.64676l0 0c0 159.05801 -128.94199 288.0 -288.0 288.0l0 0c-159.05801 0 -288.0 -128.94199 -288.0 -288.0z" fill-rule="evenodd"/><path fill="#efefef" d="m305.82812 203.775l0 112.375q0 28.015625 -17.515625 44.3125q-17.515625 16.28125 -47.875 16.28125q-29.875 0 -47.453125 -15.8125q-17.578125 -15.828125 -17.9375 -43.484375l0 -113.671875l35.15625 0l0 112.609375q0 16.765625 8.03125 24.4375q8.03125 7.671875 22.203125 7.671875q29.65625 0 30.125 -31.171875l0 -113.546875l35.265625 0zm28.828125 170.625l0 -170.625l59.765625 0q31.0625 0 47.109375 11.890625q16.0625 11.890625 16.0625 34.859375q0 12.546875 -6.453125 22.09375q-6.4375 9.546875 -17.921875 14.0q13.125 3.28125 20.671875 13.25q7.5625 9.953125 7.5625 24.375q0 24.609375 -15.703125 37.265625q-15.703125 12.65625 -44.765625 12.890625l-66.328125 0zm35.15625 -74.296875l0 46.046875l30.125 0q12.421875 0 19.390625 -5.90625q6.96875 -5.921875 6.96875 -16.359375q0 -23.4375 -24.25 -23.78125l-32.234375 0zm0 -24.84375l26.015625 0q26.609375 -0.46875 26.609375 -21.21875q0 -11.59375 -6.75 -16.6875q-6.734375 -5.109375 -21.265625 -5.109375l-24.609375 0l0 43.015625zm155.39844 99.140625l-35.15625 0l0 -170.625l35.15625 0l0 170.625z" fill-rule="nonzero"/><path fill="#000000" fill-opacity="0.0" d="m89.81102 288.0l0 0c0 -144.80298 117.386 -262.18896 262.18896 -262.18896l0 0c69.536835 0 136.22565 27.623402 185.39563 76.79338c49.16992 49.169968 76.793335 115.858765 76.793335 185.3956l0 0c0 144.80298 -117.38599 262.18896 -262.18896 262.18896l0 0c-144.80298 0 -262.18896 -117.38599 -262.18896 -262.18896z" fill-rule="evenodd"/><path stroke="#efefef" stroke-width="8.0" stroke-linejoin="round" stroke-linecap="butt" d="m89.81102 288.0l0 0c0 -144.80298 117.386 -262.18896 262.18896 -262.18896l0 0c69.536835 0 136.22565 27.623402 185.39563 76.79338c49.16992 49.169968 76.793335 115.858765 76.793335 185.3956l0 0c0 144.80298 -117.38599 262.18896 -262.18896 262.18896l0 0c-144.80298 0 -262.18896 -117.38599 -262.18896 -262.18896z" fill-rule="evenodd"/><path fill="#000000" fill-opacity="0.0" d="m106.944885 288.0l0 0c0 -135.34021 109.714905 -245.05511 245.05511 -245.05511l0 0c64.992645 0 127.323395 25.818233 173.28015 71.77498c45.956726 45.956757 71.77496 108.287476 71.77496 173.28014l0 0c0 135.34021 -109.714905 245.05511 -245.05511 245.05511l0 0c-135.34021 0 -245.05511 -109.714905 -245.05511 -245.05511z" fill-rule="evenodd"/><path stroke="#efefef" stroke-width="8.0" stroke-linejoin="round" stroke-linecap="butt" d="m106.944885 288.0l0 0c0 -135.34021 109.714905 -245.05511 245.05511 -245.05511l0 0c64.992645 0 127.323395 25.818233 173.28015 71.77498c45.956726 45.956757 71.77496 108.287476 71.77496 173.28014l0 0c0 135.34021 -109.714905 245.05511 -245.05511 245.05511l0 0c-135.34021 0 -245.05511 -109.714905 -245.05511 -245.05511z" fill-rule="evenodd"/><path fill="#000000" fill-opacity="0.0" d="m124.44095 288.0l0 0c0 -125.6774 101.88165 -227.55905 227.55905 -227.55905l0 0c60.352417 0 118.23294 23.974903 160.90857 66.6505c42.6756 42.6756 66.65051 100.55614 66.65051 160.90855l0 0c0 125.6774 -101.88168 227.55908 -227.55908 227.55908l0 0c-125.6774 0 -227.55905 -101.88168 -227.55905 -227.55908z" fill-rule="evenodd"/><path stroke="#efefef" stroke-width="8.0" stroke-linejoin="round" stroke-linecap="butt" d="m124.44095 288.0l0 0c0 -125.6774 101.88165 -227.55905 227.55905 -227.55905l0 0c60.352417 0 118.23294 23.974903 160.90857 66.6505c42.6756 42.6756 66.65051 100.55614 66.65051 160.90855l0 0c0 125.6774 -101.88168 227.55908 -227.55908 227.55908l0 0c-125.6774 0 -227.55905 -101.88168 -227.55905 -227.55908z" fill-rule="evenodd"/><path fill="#000000" fill-opacity="0.0" d="m598.18896 130.51968l1115.1497 0l0 314.96063l-1115.1497 0z" fill-rule="evenodd"/><path fill="#efefef" d="m857.22864 320.25937q-3.15625 27.0625 -19.984375 41.78125q-16.8125 14.703125 -44.703125 14.703125q-30.234375 0 -48.453125 -21.671875q-18.21875 -21.6875 -18.21875 -58.015625l0 -16.40625q0 -23.796875 8.484375 -41.84375q8.5 -18.046875 24.078125 -27.703125q15.59375 -9.671875 36.109375 -9.671875q27.1875 0 43.59375 15.171875q16.40625 15.171875 19.09375 42.015625l-22.609375 0q-2.9375 -20.390625 -12.71875 -29.53125q-9.78125 -9.140625 -27.359375 -9.140625q-21.5625 0 -33.8125 15.9375q-12.25 15.9375 -12.25 45.34375l0 16.53125q0 27.765625 11.59375 44.171875q11.609375 16.40625 32.46875 16.40625q18.75 0 28.765625 -8.484375q10.03125 -8.5 13.3125 -29.59375l22.609375 0zm127.14844 -24.734375l-73.9375 0l0 60.46875l85.890625 0l0 18.40625l-108.390625 0l0 -170.625l107.21875 0l0 18.515625l-84.71875 0l0 54.84375l73.9375 0l0 18.390625zm171.09375 78.875l-22.609375 0l-85.90625 -131.48438l0 131.48438l-22.609375 0l0 -170.625l22.609375 0l86.140625 132.0625l0 -132.0625l22.375 0l0 170.625zm154.46094 -152.10938l-54.84375 0l0 152.10938l-22.390625 0l0 -152.10938l-54.71875 0l0 -18.515625l131.95312 0l0 18.515625zm121.75 73.234375l-73.9375 0l0 60.46875l85.890625 0l0 18.40625l-108.390625 0l0 -170.625l107.21875 0l0 18.515625l-84.71875 0l0 54.84375l73.9375 0l0 18.390625zm102.546875 9.84375l-40.078125 0l0 69.03125l-22.625 0l0 -170.625l56.484375 0q28.828125 0 44.359375 13.125q15.53125 13.125 15.53125 38.203125q0 15.9375 -8.625 27.78125q-8.609375 11.828125 -23.953125 17.6875l40.078125 72.421875l0 1.40625l-24.140625 0l-37.03125 -69.03125zm-40.078125 -18.390625l34.5625 0q16.765625 0 26.65625 -8.671875q9.90625 -8.671875 9.90625 -23.203125q0 -15.828125 -9.4375 -24.265625q-9.421875 -8.4375 -27.234375 -8.546875l-34.453125 0l0 64.6875z" fill-rule="nonzero"/></g></svg>