<?xml version="1.0" encoding="UTF-8" standalone="no"?>
<!-- Created with Inkscape (http://www.inkscape.org/) -->

<svg
   xmlns:dc="http://purl.org/dc/elements/1.1/"
   xmlns:cc="http://creativecommons.org/ns#"
   xmlns:rdf="http://www.w3.org/1999/02/22-rdf-syntax-ns#"
   xmlns:svg="http://www.w3.org/2000/svg"
   xmlns="http://www.w3.org/2000/svg"
   xmlns:sodipodi="http://sodipodi.sourceforge.net/DTD/sodipodi-0.dtd"
   xmlns:inkscape="http://www.inkscape.org/namespaces/inkscape"
   width="1383.7196"
   height="569.51648"
   id="svg4443"
   version="1.1"
   inkscape:version="0.48.4 r9939"
   sodipodi:docname="New document 24">
  <defs
     id="defs4445" />
  <sodipodi:namedview
     id="base"
     pagecolor="#ffffff"
     bordercolor="#666666"
     borderopacity="1.0"
     inkscape:pageopacity="0.0"
     inkscape:pageshadow="2"
     inkscape:zoom="0.35"
     inkscape:cx="829.71695"
     inkscape:cy="164.75825"
     inkscape:document-units="px"
     inkscape:current-layer="layer1"
     showgrid="false"
     fit-margin-top="0"
     fit-margin-left="0"
     fit-margin-right="0"
     fit-margin-bottom="0"
     inkscape:window-width="1280"
     inkscape:window-height="748"
     inkscape:window-x="0"
     inkscape:window-y="26"
     inkscape:window-maximized="1" />
  <metadata
     id="metadata4448">
    <rdf:RDF>
      <cc:Work
         rdf:about="">
        <dc:format>image/svg+xml</dc:format>
        <dc:type
           rdf:resource="http://purl.org/dc/dcmitype/StillImage" />
        <dc:title></dc:title>
      </cc:Work>
    </rdf:RDF>
  </metadata>
  <g
     inkscape:label="Layer 1"
     inkscape:groupmode="layer"
     id="layer1"
     transform="translate(454.71695,-127.60395)">
    <g
       style="fill:#000080"
       id="g4185"
       transform="translate(886.60208,434.88913)">
      <g
         id="g4222"
         transform="translate(-3.9435008,-268.15804)">
        <g
           transform="translate(-569.51625,-227.44219)"
           id="g3994">
          <g
             style="fill-rule:evenodd"
             clip-rule="evenodd"
             id="g3996">
            <path
               inkscape:connector-curvature="0"
               d="m 480.65625,-991.28125 c -26.00383,0.0798 -52.61959,9.16134 -73.5,27.78125 -3.56,3.15 -20.5535,15.465 -27.1875,23.125 -11.797,14.748 -28.41175,30.69625 -25.84375,53.03125 3.74882,32.60466 56.53505,28.85055 82.375,36.5 -12.56254,-4.39696 -27.16675,-6.74979 -40.21875,-10.65625 29.023,3.311 75.96225,10.23075 54.40625,36.71875 9.248,-1.197 14.57025,-13.51075 19.03125,-14.96875 -15.44,67.329 27.021,142.72975 100.625,115.59375 -8.048,0.763 -16.5965,-5.10725 -16.3125,-8.15625 22.823,6.673 46.0285,-2.992 50.3125,-23.125 -7.6,3.92 -19.005,2.6575 -23.125,-4.0625 -36.899,-23.95 -2.17575,-96.698 -2.71875,-137.375 -0.82687,-61.89684 -48.20007,-94.55852 -97.84375,-94.40625 z M 436.5,-850.84375 c 2.5487,0.89206 5.02638,1.84541 7.375,2.9375 -2.07301,-1.16157 -4.56841,-2.10666 -7.375,-2.9375 z M 371.78125,-861.5 c -29.139,53.365 33.3815,126.0255 -5.4375,152.3125 4.836,-0.21 8.086,-9.0685 10.875,-6.8125 -5.737,8.121 -17.5105,15.03775 -27.1875,14.96875 10.349,7.461 36.145,13.084 46.25,1.375 -14.968,23.498 -60.765,32.91075 -92.5,23.09375 17.931,11.537 36.60475,22.3345 59.84375,28.5625 -16.31,0.44 -29.54125,-9.39 -40.78125,-9.5 53.461,27.931 135.71625,11.07425 142.78125,-48.96875 3.02,-25.667 -6.4195,-48.742 -16.3125,-68 -13.517,4.163 -18.64575,16.73775 -38.09375,14.96875 -6.171,-7.429 -9.34425,-17.837 -17.65625,-23.125 6.124,-7.814 -3.62175,-5.508 -4.09375,-12.25 2.229,-3.293 3.479,-6.602 1.375,-10.875 -6.374,-1.786 -14.78275,-1.55625 -16.34375,-8.15625 2.037,-9.75 7.1815,-16.4075 6.8125,-28.5625 -0.47,-0.515 -1.04775,-1.82575 -1.34375,-2.71875 -1.961,-6.199 -4.7015,-11.6385 -8.1875,-16.3125 z m 2.71875,84.3125 c 7.785,10.577 12.2475,30.99575 8.1875,48.96875 0.89,-15.42 -3.8075,-34.54875 -8.1875,-48.96875 z"
               transform="translate(-100.5941,1223.1071)"
               id="path3998" />
            <path
               inkscape:connector-curvature="0"
               d="m 483.36,464.96 c -2.989,-1.949 11.302,-0.205 13.6,1.36 h -10.88 c -0.04,-1.32 -1.66,-1.06 -2.72,-1.36 z"
               id="path4000" />
          </g>
        </g>
        <path
           style="font-size:102.77297211px;font-style:normal;font-variant:normal;font-weight:bold;font-stretch:normal;line-height:125%;letter-spacing:0px;word-spacing:0px;fill:#000000;fill-opacity:1;stroke:none;font-family:'Lobster 1.4';-inkscape-font-specification:'Lobster 1.4 Bold'"
           d="M 203.5625 423.21875 C 186.3994 423.21875 167.5 436.29995 167.5 449.96875 C 167.5 457.36839 171.37735 459.9375 178.46875 459.9375 C 178.36595 459.01255 177.03125 458.17892 177.03125 452.9375 C 177.03125 441.9408 182.4963 434.23108 191.4375 430.53125 L 176.53125 500.3125 L 191.34375 500.3125 L 207.65625 423.4375 C 206.32015 423.33473 205.0013 423.21875 203.5625 423.21875 z M 755.5625 423.21875 C 738.39943 423.21875 719.5 436.29995 719.5 449.96875 C 719.5 457.36839 723.40867 459.9375 730.5 459.9375 C 730.39723 459.01255 729.03125 458.17892 729.03125 452.9375 C 729.03125 441.63249 734.48526 433.61928 745.6875 430.125 L 745.6875 500.3125 L 760.8125 500.3125 L 781.15625 448 L 781.15625 500.3125 L 796.375 500.3125 L 824.9375 423.75 L 817.75 423.75 L 795.65625 486.65625 L 795.65625 423.75 L 782.1875 423.75 L 760.59375 486.65625 L 759.6875 423.4375 C 758.35146 423.33473 757.00132 423.21875 755.5625 423.21875 z M 1043.125 423.21875 L 1036.875 442.65625 L 1044.5938 442.65625 L 1053.9375 423.21875 L 1043.125 423.21875 z M 1147.5312 423.21875 C 1126.6684 423.21875 1109.3125 436.29511 1109.3125 450.375 C 1109.3125 457.36355 1113.5295 459.9375 1120.3125 459.9375 C 1120.2097 459.01255 1118.875 458.17892 1118.875 452.9375 C 1118.875 437.31603 1130.4681 427.96875 1145.7812 427.96875 C 1154.7225 427.96875 1160.7812 433.39789 1160.7812 447.375 C 1160.7812 468.13512 1153.2925 492.59375 1141.0625 492.59375 C 1139.1098 492.59375 1137.1402 492.00132 1135.1875 490.5625 L 1147.5312 432.90625 L 1132.3125 434.9375 L 1118.3438 500.3125 L 1133.1562 500.3125 L 1133.9688 496.1875 C 1138.388 499.9901 1142.5946 501.65625 1146.5 501.65625 C 1161.7104 501.65625 1174.9688 476.48151 1174.9688 452.84375 C 1174.9688 437.1195 1167.4692 423.21875 1147.5312 423.21875 z M 513.84375 427.03125 C 509.32174 427.03125 505.71875 430.72799 505.71875 435.25 C 505.71875 439.77201 509.32174 443.375 513.84375 443.375 C 518.36576 443.375 522.0625 439.77201 522.0625 435.25 C 522.0625 430.72799 518.36576 427.03125 513.84375 427.03125 z M 701.3125 428.15625 L 686.09375 430.21875 L 675.09375 481.71875 C 674.9326 482.49229 674.80505 483.23881 674.6875 483.96875 C 673.06576 488.20202 670.526 491.5625 667.0625 491.5625 C 664.18486 491.5625 662.84375 490.03389 662.84375 487.15625 C 662.84375 486.2313 662.94168 485.21104 663.25 483.875 L 670.65625 448.9375 L 655.84375 448.9375 L 654.71875 454.375 L 654.71875 453.65625 C 654.71875 450.67584 652.26431 448.40625 646.40625 448.40625 C 628.52377 448.40625 619.96875 470.50066 619.96875 484.375 C 619.96875 484.49321 619.96751 484.60201 619.96875 484.71875 C 618.16972 488.4977 616.26591 490.96875 612.59375 490.96875 C 609.51056 490.96875 608.5 489.22557 608.5 486.65625 C 608.5 480.90097 613.40625 468.4496 613.40625 460.125 C 613.40625 451.90317 608.57747 448.5 602 448.5 C 598.81405 448.5 594.31646 449.34815 590 454.28125 L 591.125 448.9375 L 576.3125 448.9375 L 573.40625 462.625 C 570.5223 463.83142 567.61257 464.65625 565.1875 464.65625 C 564.87918 464.65625 564.44234 464.64305 564.03125 464.4375 C 564.03125 453.64635 559.71347 448 550.875 448 C 529.70379 448 522.71875 472.68112 522.71875 484.5 C 522.71875 484.72954 522.74475 484.93221 522.75 485.15625 C 520.87526 488.60634 517.95148 490.96875 514.84375 490.96875 C 511.96611 490.96875 510.65625 490.03389 510.65625 487.15625 C 510.65625 486.2313 510.75418 485.21104 511.0625 483.875 L 518.46875 448.9375 L 503.65625 448.9375 L 496.65625 481.90625 L 496.59375 481.90625 C 495.05216 487.04489 491.35189 490.96875 487.34375 490.96875 C 484.46611 490.96875 483.15625 490.03389 483.15625 487.15625 C 483.15625 486.2313 483.25418 485.21104 483.5625 483.875 L 490.125 453.03125 L 496.3125 453.03125 L 497.125 448.9375 L 490.96875 448.9375 L 494.4375 432.6875 L 479.25 434.75 L 476.15625 448.9375 L 472.75 448.9375 L 471.9375 453.03125 L 475.34375 453.03125 L 469.15625 481.90625 C 469.1251 482.05576 469.09212 482.19577 469.0625 482.34375 C 467.49621 487.29586 464.79841 491.5625 460.90625 491.5625 C 458.02861 491.5625 456.6875 490.03389 456.6875 487.15625 C 456.6875 486.2313 456.78543 485.21104 457.09375 483.875 L 464.5 448.9375 L 449.6875 448.9375 L 448.5625 454.375 L 448.5625 453.65625 C 448.5625 450.67584 446.10805 448.40625 440.25 448.40625 C 422.36752 448.40625 413.84375 470.50066 413.84375 484.375 C 413.84375 484.47182 413.84292 484.56042 413.84375 484.65625 C 412.03594 488.471 410.12998 490.96875 406.4375 490.96875 C 403.35431 490.96875 402.34375 489.22557 402.34375 486.65625 C 402.34375 480.90097 407.28125 468.4496 407.28125 460.125 C 407.28125 451.90317 402.45247 448.5 395.875 448.5 C 392.68904 448.5 388.16022 449.34815 383.84375 454.28125 L 384.96875 448.9375 L 370.15625 448.9375 L 359.28125 500.3125 L 374.0625 500.3125 L 381.0625 467.3125 C 382.6041 462.17385 385.39392 457.875 389.09375 457.875 C 391.5603 457.875 392.78125 459.70224 392.78125 463.09375 C 392.78125 469.67121 388.15625 482.32395 388.15625 489.3125 C 388.15625 495.17056 391.34001 500.9375 400.28125 500.9375 C 404.40835 500.9375 409.95879 499.682 414.90625 491.75 C 417.04553 498.38751 422.16274 500.9375 427.5 500.9375 C 434.79687 500.9375 439.62654 496.1963 442.8125 491.46875 C 443.42914 497.63512 447.11972 500.9375 452.875 500.9375 C 457.03731 500.9375 463.29205 499.6719 468.625 491.96875 C 469.74336 498.19056 474.05481 500.9375 479.34375 500.9375 C 483.55689 500.9375 490.46186 499.64451 496.09375 491.6875 C 497.13158 498.10874 501.47573 500.9375 506.84375 500.9375 C 511.10265 500.9375 518.08477 499.5965 523.75 491.40625 C 526.00622 498.02185 531.77958 500.71875 539.15625 500.71875 C 551.79732 500.71875 562.07439 488.79423 563.71875 469.78125 C 566.78627 469.277 569.72679 468.44859 572.40625 467.375 L 565.4375 500.3125 L 580.21875 500.3125 L 587.21875 467.3125 C 588.76034 462.17385 591.51893 457.875 595.21875 457.875 C 597.6853 457.875 598.9375 459.70224 598.9375 463.09375 C 598.9375 469.67121 594.3125 482.32395 594.3125 489.3125 C 594.3125 495.17056 597.49626 500.9375 606.4375 500.9375 C 610.55852 500.9375 616.08933 499.68187 621.03125 491.78125 C 623.17561 498.39932 628.32598 500.9375 633.65625 500.9375 C 640.95313 500.9375 645.78279 496.1963 648.96875 491.46875 C 649.58538 497.63512 653.27597 500.9375 659.03125 500.9375 C 663.15858 500.9375 669.35314 499.68788 674.65625 492.15625 C 675.87081 498.21554 680.09215 500.9375 685.28125 500.9375 C 690.83098 500.9375 696.07989 497.42187 696.59375 490.125 C 695.97712 490.43332 695.16241 490.75 693.3125 490.75 C 690.12654 490.75 689.09375 489.02002 689.09375 486.65625 C 689.09375 485.73129 689.29445 484.68398 689.5 483.65625 L 701.3125 428.15625 z M 282.6875 432.6875 L 267.46875 434.75 L 264.375 448.9375 L 261 448.9375 L 260.1875 453.03125 L 263.5625 453.03125 L 257.40625 481.90625 L 257.3125 481.90625 C 255.0515 487.25044 253.2095 490.96875 248.6875 490.96875 C 245.6043 490.96875 244.5625 489.22557 244.5625 486.65625 C 244.5625 480.90097 249.5 468.4496 249.5 460.125 C 249.5 451.90317 244.67115 448.5 238.09375 448.5 C 234.90775 448.5 230.379 449.34815 226.0625 454.28125 L 227.1875 448.9375 L 212.40625 448.9375 L 201.5 500.3125 L 216.3125 500.3125 L 223.28125 467.3125 C 224.82285 462.17385 227.6126 457.875 231.3125 457.875 C 233.779 457.875 235 459.70224 235 463.09375 C 235 469.67121 230.375 482.32395 230.375 489.3125 C 230.375 495.17056 233.5588 500.9375 242.5 500.9375 C 246.56063 500.9375 251.98889 499.71836 256.875 492.125 C 258.0372 498.23555 262.31826 500.9375 267.5625 500.9375 C 271.82759 500.9375 278.83035 499.59724 284.5 491.375 C 286.59866 498.06643 292.10263 500.9375 299.59375 500.9375 C 309.88981 500.9375 317.39222 495.49849 322.96875 488.78125 L 320.53125 500.3125 L 335.34375 500.3125 L 343.5625 461.25 C 346.13182 458.88623 347.97931 457.34375 351.0625 457.34375 C 354.14568 457.34375 351.27597 464.125 357.03125 464.125 C 362.06712 464.125 364.40625 460.22205 364.40625 456.625 C 364.40625 452.71963 361.96853 448.9375 357.34375 448.9375 C 352.41065 448.9375 348.5033 452.22931 344.90625 455.3125 L 346.21875 448.9375 L 331.4375 448.9375 L 324.4375 481.90625 L 324.375 481.90625 C 319.2363 487.7643 314.27535 492.28125 306.15625 492.28125 C 301.22325 492.28125 298.78125 490.64481 298.78125 483.65625 C 298.78125 482.42298 298.86605 481.00132 298.96875 479.5625 C 311.30155 478.84309 322.625 469.69388 322.625 457.875 C 322.625 452.73636 320.4593 448 311.3125 448 C 290.2441 448 283.5625 472.77487 283.5625 484.59375 C 283.5625 484.73446 283.56063 484.86131 283.5625 485 C 281.69165 488.53345 278.74715 490.96875 275.59375 490.96875 C 272.71605 490.96875 271.375 490.03389 271.375 487.15625 C 271.375 486.2313 271.47285 485.21104 271.78125 483.875 L 278.375 453.03125 L 284.53125 453.03125 L 285.34375 448.9375 L 279.1875 448.9375 L 282.6875 432.6875 z M 1083.9062 445.75 L 1068.6875 447.78125 C 1065.5015 457.85299 1061.7865 468.04424 1056.0312 478.21875 C 1053.2564 479.5548 1050.5938 483.0537 1050.5938 487.78125 C 1050.5938 494.05039 1055.1109 500.9375 1065.5938 500.9375 C 1074.0211 500.9375 1086.1562 496.51672 1086.1562 483.15625 C 1086.1562 476.37324 1085.1395 472.36818 1083.9062 445.75 z M 844.5625 448 C 823.39129 448 816.40625 472.68112 816.40625 484.5 C 816.40625 496.21611 823.28588 500.71875 832.84375 500.71875 C 845.48482 500.71875 855.76189 488.79423 857.40625 469.78125 C 860.47377 469.277 863.38304 468.44859 866.0625 467.375 L 859.09375 500.3125 L 873.875 500.3125 L 880.875 467.3125 C 882.41659 462.17385 885.17936 457.75 889.1875 457.75 C 891.4485 457.75 892.28125 460.02025 892.28125 462.28125 C 892.28125 463.20621 892.17429 464.02156 891.96875 464.84375 L 884.46875 500.3125 L 899.28125 500.3125 L 906.25 467.3125 C 907.79159 462.17385 910.58143 457.875 914.28125 457.875 C 916.7478 457.875 917.96875 459.70224 917.96875 463.09375 C 917.96875 469.67121 913.34375 482.32395 913.34375 489.3125 C 913.34375 495.17056 916.52751 500.9375 925.46875 500.9375 C 929.57986 500.9375 935.09839 499.69345 940.03125 491.84375 C 942.2362 498.20298 947.65309 500.9375 954.96875 500.9375 C 965.26481 500.9375 972.76719 495.49849 978.34375 488.78125 L 975.90625 500.3125 L 990.71875 500.3125 L 997.6875 467.3125 C 999.22909 462.17385 1002.0189 457.875 1005.7188 457.875 C 1008.1853 457.875 1009.4062 459.70224 1009.4062 463.09375 C 1009.4062 469.67121 1004.7812 482.32395 1004.7812 489.3125 C 1004.7812 495.17056 1007.274 500.9375 1015.1875 500.9375 C 1020.6345 500.9375 1025.5438 497.7434 1026.4688 490.34375 C 1025.8521 490.75484 1024.8409 490.96875 1023.0938 490.96875 C 1020.0106 490.96875 1018.9688 489.22557 1018.9688 486.65625 C 1018.9688 480.90097 1023.9062 468.4496 1023.9062 460.125 C 1023.9062 451.90317 1019.0775 448.5 1012.5 448.5 C 1009.314 448.5 1004.7852 449.34815 1000.4688 454.28125 L 1001.5938 448.9375 L 986.8125 448.9375 L 979.8125 481.90625 L 979.75 481.90625 C 974.61135 487.7643 969.68156 492.28125 961.5625 492.28125 C 956.6294 492.28125 954.15625 490.64481 954.15625 483.65625 C 954.15625 482.42298 954.24098 481.00132 954.34375 479.5625 C 966.6765 478.84309 978 469.69388 978 457.875 C 978 452.73636 975.83429 448 966.6875 448 C 945.61906 448 938.9375 472.77487 938.9375 484.59375 C 938.9375 484.70199 938.9364 484.79921 938.9375 484.90625 C 937.16362 488.58115 935.26899 490.96875 931.65625 490.96875 C 928.57306 490.96875 927.53125 489.22557 927.53125 486.65625 C 927.53125 480.90097 932.46875 468.4496 932.46875 460.125 C 932.46875 451.90317 927.63996 448.5 921.0625 448.5 C 917.2599 448.5 911.71434 449.6448 906.78125 457.25 C 905.65074 450.87808 901.63446 448.40625 896.1875 448.40625 C 892.59045 448.40625 887.97271 449.34815 883.65625 454.28125 L 884.78125 448.9375 L 869.96875 448.9375 L 867.0625 462.625 C 864.18696 463.82537 861.26148 464.65625 858.84375 464.65625 C 858.53543 464.65625 858.12985 464.64305 857.71875 464.4375 C 857.71875 453.64635 853.40097 448 844.5625 448 z M 1201.8125 448.40625 C 1183.93 448.40625 1175.4062 470.50066 1175.4062 484.375 C 1175.4062 496.60497 1182.0739 500.9375 1189.0625 500.9375 C 1196.3594 500.9375 1201.189 496.1963 1204.375 491.46875 C 1204.9916 497.63512 1208.6822 500.9375 1214.4375 500.9375 C 1218.5998 500.9375 1224.8545 499.6719 1230.1875 491.96875 C 1231.3059 498.19056 1235.6173 500.9375 1240.9062 500.9375 C 1244.4005 500.9375 1249.0183 500.00462 1253.4375 494.96875 L 1252.4062 499.5 C 1242.6428 502.37764 1234.625 505.34838 1234.625 514.90625 C 1234.625 521.58649 1240.4809 526 1246.75 526 C 1253.533 526 1262.3856 523.22777 1265.4688 508.53125 L 1278 448.9375 L 1263.0938 448.9375 L 1256.125 481.90625 C 1254.5834 487.04489 1251.9144 490.96875 1247.9062 490.96875 C 1245.5425 490.96875 1244.8125 488.80128 1244.8125 486.4375 C 1244.8125 485.61532 1244.9195 484.69718 1245.125 483.875 L 1252.5312 448.9375 L 1237.7188 448.9375 L 1230.7188 481.90625 C 1230.6876 482.05576 1230.6546 482.19577 1230.625 482.34375 C 1229.0587 487.29586 1226.3609 491.5625 1222.4688 491.5625 C 1219.5911 491.5625 1218.25 490.03389 1218.25 487.15625 C 1218.25 486.2313 1218.3479 485.21104 1218.6562 483.875 L 1226.0625 448.9375 L 1211.25 448.9375 L 1210.125 454.375 L 1210.125 453.65625 C 1210.125 450.67584 1207.6706 448.40625 1201.8125 448.40625 z M 312.125 453.4375 C 314.0777 453.4375 314.6875 455.08693 314.6875 457.65625 C 314.6875 466.1864 307.726 474.11113 299.8125 474.625 C 301.868 464.45048 306.8836 453.4375 312.125 453.4375 z M 967.5 453.4375 C 969.45269 453.4375 970.09375 455.08693 970.09375 457.65625 C 970.09375 466.1864 963.10101 474.11113 955.1875 474.625 C 957.24295 464.45048 962.25859 453.4375 967.5 453.4375 z M 551.71875 454.28125 C 554.39084 454.28125 555.41945 455.90229 555.625 460.21875 C 553.77509 461.04094 552.4375 462.90361 552.4375 465.78125 C 552.4375 467.83671 553.02927 469.57988 555.1875 470.09375 C 553.54313 482.22095 548.31712 491.46875 543.28125 491.46875 C 539.37588 491.46875 538.03125 489.93925 538.03125 483.15625 C 538.03125 473.0845 544.42187 454.28125 551.71875 454.28125 z M 845.375 454.28125 C 848.04709 454.28125 849.0757 455.90229 849.28125 460.21875 C 847.43134 461.04094 846.09375 462.90361 846.09375 465.78125 C 846.09375 467.83671 846.71677 469.57988 848.875 470.09375 C 847.23063 482.22095 841.97337 491.46875 836.9375 491.46875 C 833.03213 491.46875 831.71875 489.93925 831.71875 483.15625 C 831.71875 473.0845 838.07812 454.28125 845.375 454.28125 z M 443.4375 454.78125 C 446.72623 454.78125 447.65625 457.45422 447.65625 458.6875 L 442.71875 481.90625 C 441.48547 487.86708 437.16791 490.96875 434.1875 490.96875 C 432.33759 490.96875 429.03125 490.85101 429.03125 482.9375 C 429.03125 473.27685 434.7018 454.78125 443.4375 454.78125 z M 649.59375 454.78125 C 652.88249 454.78125 653.78125 457.45422 653.78125 458.6875 L 648.875 481.90625 C 647.64173 487.86708 643.32416 490.96875 640.34375 490.96875 C 638.49384 490.96875 635.1875 490.85101 635.1875 482.9375 C 635.1875 473.27685 640.85806 454.78125 649.59375 454.78125 z M 1205 454.78125 C 1208.2887 454.78125 1209.2188 457.45422 1209.2188 458.6875 L 1204.2812 481.90625 C 1203.048 487.86708 1198.7304 490.96875 1195.75 490.96875 C 1193.9001 490.96875 1190.5938 490.85101 1190.5938 482.9375 C 1190.5938 473.27685 1196.2643 454.78125 1205 454.78125 z M 1069.3125 458.90625 C 1070.3402 474.73328 1071.25 477.90581 1071.25 483.25 C 1071.25 490.4441 1066.8345 492.8125 1062.3125 492.8125 C 1057.7905 492.8125 1056.0312 490.45532 1056.0312 485.625 C 1056.5451 486.65273 1057.7848 486.9375 1058.8125 486.9375 C 1061.4846 486.9375 1063.3438 484.3728 1063.3438 481.90625 C 1063.3438 480.15911 1062.3048 478.92913 1060.9688 478.3125 C 1064.3602 471.73503 1067.257 465.58649 1069.3125 458.90625 z M 1251.6875 502.78125 L 1250.4688 508.84375 C 1249.1327 514.90735 1246.4617 516.875 1244.4062 516.875 C 1242.1452 516.875 1240.2812 514.90757 1240.2812 513.46875 C 1240.2812 507.91902 1245.2128 504.93948 1251.6875 502.78125 z "
           transform="translate(-1337.3755,-39.12714)"
           id="path4547" />
        <path
           style="font-size:238.80874634px;font-style:normal;font-variant:normal;font-weight:bold;font-stretch:normal;line-height:125%;letter-spacing:0px;word-spacing:0px;fill:#000000;fill-opacity:1;stroke:none;font-family:'Lobster 1.4';-inkscape-font-specification:'Lobster 1.4 Bold'"
           d="M 420.625 216.09375 C 384.32611 216.09375 344.6875 249.05751 344.6875 279.625 C 344.6875 295.38636 354.69619 301.34375 370.21875 301.34375 C 369.97994 299.19448 366.875 297.53185 366.875 284.875 C 366.875 257.65083 381.2017 239.03693 404.84375 231.15625 L 344.1875 395.21875 L 363.3125 395.21875 L 403.1875 287.5 L 398.40625 395.21875 L 431.125 395.21875 L 476.03125 287.96875 L 460.75 395.21875 L 495.125 395.21875 L 520.1875 219.4375 L 485.8125 219.4375 L 433.28125 345.28125 L 438.78125 219.4375 C 433.04984 217.28823 426.83402 216.09375 420.625 216.09375 z M 231.53125 216.34375 C 200.00855 216.34375 178.25 240.23064 178.25 263.15625 C 178.25 275.5743 184.4728 287.50551 198.5625 295.625 C 169.4279 303.74449 155.5625 326.67467 155.5625 348.40625 C 155.5625 373.00352 173.25195 396.40625 205.96875 396.40625 C 244.41695 396.40625 272.125 362.00963 272.125 332.875 C 272.125 316.63602 263.51745 301.83402 243.21875 295.625 C 265.42795 284.87862 276.65625 266.96892 276.65625 250.96875 C 276.65625 232.34168 261.62115 216.34375 231.53125 216.34375 z M 234.625 227.8125 C 242.2668 227.8125 246.3125 234.97891 246.3125 244.53125 C 246.3125 258.14334 238.21895 276.99242 222.21875 287.5 C 213.62165 280.33574 209.5625 269.60133 209.5625 259.09375 C 209.5625 243.09358 218.8636 227.8125 234.625 227.8125 z M 884.1875 228.03125 L 848.84375 232.8125 L 823.34375 352.5 C 811.40895 366.10343 799.95138 376.59375 781.09375 376.59375 C 769.63094 376.59375 763.90625 372.77023 763.90625 356.53125 C 763.90625 330.02351 779.42381 286.3125 794.46875 286.3125 C 799.00611 286.3125 801.15625 290.12354 801.15625 296.09375 C 801.15625 300.15349 800.19172 304.93371 798.28125 310.1875 C 801.14695 312.09796 803.9981 313.0625 806.625 313.0625 C 813.55044 313.0625 819.3125 307.32662 819.3125 295.625 C 819.3125 284.63981 814.03521 273.65625 792.78125 273.65625 C 744.30312 273.65625 728.5625 330.95446 728.5625 358.65625 C 728.5625 385.64161 743.3645 396.625 765.8125 396.625 C 789.58969 396.625 806.94209 384.19406 819.875 368.71875 L 814.21875 395.21875 L 848.625 395.21875 L 865.5625 315.6875 C 869.14463 304.94111 875.58807 296.59375 883.46875 296.59375 C 889.20016 296.59375 892.0625 300.86932 892.0625 308.75 C 892.0625 324.03375 881.34375 353.41728 881.34375 369.65625 C 881.34375 383.26834 887.04924 396.625 905.4375 396.625 C 918.09435 396.625 929.56947 389.22546 931.71875 372.03125 C 930.2859 372.98649 927.90349 373.46875 923.84375 373.46875 C 916.67949 373.46875 914.28125 369.40771 914.28125 363.4375 C 914.28125 350.06422 925.75 321.18724 925.75 301.84375 C 925.75 282.73907 914.53374 274.84375 899.25 274.84375 C 891.84693 274.84375 881.58127 276.74475 871.3125 287.96875 L 884.1875 228.03125 z M 574.4375 274.59375 C 532.88482 274.59375 513.0625 325.94836 513.0625 358.1875 C 513.0625 386.60572 528.57352 396.625 544.8125 396.625 C 561.7679 396.625 573.00319 385.64144 580.40625 374.65625 C 581.8391 388.98476 590.43922 396.625 603.8125 396.625 C 612.19614 396.625 624.22058 394.4057 635.34375 382.15625 L 632.5625 395.21875 L 666.9375 395.21875 L 686.0625 304.46875 C 692.03271 298.97615 696.33575 295.375 703.5 295.375 C 710.66426 295.375 703.97047 311.15625 717.34375 311.15625 C 729.04536 311.15625 734.53125 302.07705 734.53125 293.71875 C 734.53125 284.64403 728.80889 275.8125 718.0625 275.8125 C 706.5997 275.8125 697.51454 283.42949 689.15625 290.59375 L 692.25 275.8125 L 657.875 275.8125 L 641.34375 353.875 C 637.68573 365.22202 631.38348 374.90625 622.4375 374.90625 C 615.75086 374.90625 612.65625 371.31164 612.65625 364.625 C 612.65625 362.47572 612.87732 360.10451 613.59375 357 L 630.78125 275.8125 L 596.40625 275.8125 L 593.78125 288.46875 L 593.78125 286.78125 C 593.78125 279.8558 588.04959 274.59375 574.4375 274.59375 z M 581.84375 289.40625 C 589.48562 289.40625 591.625 295.6343 591.625 298.5 L 580.15625 352.46875 C 577.29055 366.31965 567.26919 373.46875 560.34375 373.46875 C 556.04519 373.46875 548.40625 373.23201 548.40625 354.84375 C 548.40625 332.39575 561.54502 289.40625 581.84375 289.40625 z M 219.5625 303.75 C 230.0701 312.82472 234.625 326.1981 234.625 339.09375 C 234.625 359.63129 223.39515 379.21875 207.15625 379.21875 C 195.93225 379.21875 190.21875 369.41572 190.21875 356.28125 C 190.21875 339.32585 199.7414 316.88447 219.5625 303.75 z "
           transform="translate(-1337.3755,-39.12714)"
           id="path4527" />
      </g>
    </g>
  </g>
</svg>
